M48
; DRILL file {KiCad 9.0.4} date 2025-10-22T12:07:54-0700
; FORMAT={-:-/ absolute / metric / decimal}
; #@! TF.CreationDate,2025-10-22T12:07:54-07:00
; #@! TF.GenerationSoftware,Kicad,Pcbnew,9.0.4
; #@! TF.FileFunction,Plated,1,2,PTH
FMAT,2
METRIC
; #@! TA.AperFunction,Plated,PTH,ViaDrill
T1C0.200
; #@! TA.AperFunction,Plated,PTH,ViaDrill
T2C0.300
; #@! TA.AperFunction,Plated,PTH,ComponentDrill
T3C0.900
; #@! TA.AperFunction,Plated,PTH,ComponentDrill
T4C1.000
; #@! TA.AperFunction,Plated,PTH,ComponentDrill
T5C1.100
; #@! TA.AperFunction,Plated,PTH,ComponentDrill
T6C1.600
; #@! TA.AperFunction,Plated,PTH,ComponentDrill
T7C3.810
; #@! TA.AperFunction,Plated,PTH,ComponentDrill
T8C4.300
%
G90
G05
T1
X124.3Y-126.8
X125.761Y-97.049
X126.64Y-85.83
X126.64Y-87.88
X126.739Y-78.44
X127.03Y-83.77
X131.58Y-82.91
X132.5Y-93.774
X133.5Y-98.974
X133.95Y-95.424
X134.17Y-82.93
X135.45Y-95.424
X137.12Y-81.44
X138.45Y-100.974
X138.539Y-78.44
X139.093Y-95.917
X139.55Y-92.549
X140.993Y-94.017
X144.5Y-64.94
X146.56Y-64.97
T2
X111.3Y-105.7
X112.0Y-121.0
X112.0Y-127.4
X112.07Y-123.79
X113.0Y-63.0
X113.0Y-71.0
X113.0Y-76.0
X113.0Y-82.0
X113.0Y-90.0
X113.9Y-108.5
X114.12Y-102.98
X116.0Y-86.0
X116.0Y-127.4
X116.4Y-105.85
X118.0Y-67.0
X118.94Y-105.85
X119.0Y-76.0
X119.0Y-82.0
X119.0Y-90.0
X120.0Y-127.4
X121.0Y-61.0
X121.5Y-108.7
X122.0Y-77.28
X122.0Y-86.0
X122.5Y-65.06
X122.675Y-67.28
X122.78Y-63.12
X123.0Y-131.0
X123.0Y-136.0
X123.2Y-95.0
X123.38Y-61.28
X124.0Y-55.28
X124.0Y-70.03
X124.13Y-59.84
X125.0Y-75.28
X125.0Y-82.0
X125.01Y-71.99
X125.24Y-58.37
X125.5Y-99.5
X125.5Y-103.0
X126.31Y-73.2
X126.69Y-57.18
X127.3Y-104.5
X127.95Y-74.16
X128.32Y-56.16
X129.73Y-74.48
X130.0Y-104.0
X130.3Y-55.59
X132.0Y-52.0
X132.1Y-55.3
X134.19Y-55.43
X136.0Y-74.68
X136.25Y-56.02
X137.67Y-73.67
X138.05Y-56.97
X139.11Y-72.42
X139.73Y-58.27
X140.0Y-52.0
X140.0Y-55.28
X140.0Y-75.28
X140.46Y-70.98
X141.0Y-60.28
X141.27Y-69.31
X141.95Y-67.54
X143.0Y-89.0
X143.9Y-95.4
X144.0Y-98.0
X144.99Y-113.14
X145.0Y-70.0
X145.0Y-124.0
X145.0Y-128.0
X145.8Y-97.4
X146.0Y-85.0
X149.0Y-98.0
X150.0Y-70.0
X150.0Y-80.0
X153.0Y-117.0
X153.0Y-128.0
X153.5Y-85.0
T3
X130.873Y-122.74
X132.132Y-120.2
X133.403Y-122.74
X134.702Y-120.2
X135.942Y-122.74
X137.222Y-120.2
X138.482Y-122.74
X139.752Y-120.22
T5
X114.2Y-123.8
X117.8Y-123.8
T6
X127.282Y-117.19
X143.322Y-117.2
T7
X128.75Y-61.414
X128.75Y-69.086
X136.375Y-61.414
X136.375Y-69.054
T8
X116.0Y-56.0
X116.0Y-134.0
X149.0Y-56.0
X149.0Y-134.0
T4
X117.983Y-115.535G85X117.983Y-113.535
G05
X121.982Y-119.235G85X119.982Y-119.235
G05
X123.982Y-115.785G85X123.982Y-113.285
G05
M30
